<?xml version="1.0" encoding="UTF-8" standalone="no"?>
<svg
    version="1.2"
    viewBox="0 0 228 228"
    xmlns="http://www.w3.org/2000/svg"
    xmlns:svg="http://www.w3.org/2000/svg"
>
    <path
        fill="currentColor"
        fill-rule="evenodd"
        d="M 228,114 C 228,176.96 176.96,228 114,228 51.04,228 0,176.96 0,114 0,51.04 51.04,0 114,0 176.96,0 228,51.04 228,114 Z m -208,0 c 0,51.83 42.17,94 94,94 51.83,0 94,-42.17 94,-94 0,-51.83 -42.17,-94 -94,-94 -51.83,0 -94,42.17 -94,94 z" 
    />

    <path
        fill="currentColor"
        fill-rule="evenodd"
        d="m 114.18,169.85 q -19.63,0 -34.28,-12.01 v 48.73 q 0,4.4 -2.98,7.28 -2.98,2.88 -7.28,2.88 -4.39,0 -7.27,-2.88 -2.88,-2.88 -2.88,-7.28 v -91.4 q 0,-22.66 16.01,-38.68 16.02,-16.01 38.68,-16.01 22.46,0 38.67,16.01 8,7.92 12.01,17.63 4,9.72 4,21.05 0,22.85 -16.01,38.67 -8.21,8.1 -17.82,12.06 -9.62,3.95 -20.85,3.95 z M 79.9,115.17 q 0,7.03 2.68,13.28 2.69,6.25 7.28,10.89 4.59,4.64 10.84,7.37 6.25,2.73 13.48,2.73 7.12,0 13.37,-2.73 6.25,-2.73 10.89,-7.42 4.64,-4.69 7.33,-10.89 2.68,-6.2 2.68,-13.23 0,-7.03 -2.68,-13.24 -2.69,-6.2 -7.33,-10.88 -4.64,-4.69 -10.89,-7.43 -6.25,-2.73 -13.37,-2.73 -7.23,0 -13.48,2.73 -6.25,2.74 -10.84,7.38 -4.59,4.64 -7.28,10.89 -2.68,6.25 -2.68,13.28 z"
    />
</svg>